<?xml version="1.0" encoding="utf-8"?>
<!--
 UpFish - dynamically making fun of your movies
 Copyright (C) 2021 Joey Parrish

 This program is free software: you can redistribute it and/or modify
 it under the terms of the GNU General Public License as published by
 the Free Software Foundation, either version 3 of the License, or
 (at your option) any later version.

 This program is distributed in the hope that it will be useful,
 but WITHOUT ANY WARRANTY; without even the implied warranty of
 MERCHANTABILITY or FITNESS FOR A PARTICULAR PURPOSE.  See the
 GNU General Public License for more details.

 You should have received a copy of the GNU General Public License
 along with this program.  If not, see <https://www.gnu.org/licenses/>.
-->
<svg xmlns="http://www.w3.org/2000/svg" version="1.1" width="585px" height="585px" viewBox="0 0 585 585">
  <!--
    Based on: "Fish Outline SVG Vector" https://www.svgrepo.com/svg/31355/fish-outline
    By: "SVG Repo" https://www.svgrepo.com/
    License: CC0 https://www.svgrepo.com/page/licensing

    Heavily edited in Inkscape to allow more flexibility in stroke width and to
    create separate spaces for fill colors.
  -->
  <g fill="none" stroke="black" stroke-width="20" transform="rotate(-45,216.22976,227.3904)">
    <!-- the fill space for the fish body -->
    <g stroke="none" fill="cornflowerblue">
      <path d="m 264.125,130.66797 c -3.54668,0.0217 -6.96066,0.29206 -10.41406,0.65039 4.65853,21.53132 9.31958,43.06209 13.97656,64.59375 -44.54334,17.19279 -84.15889,46.6754 -115.47266,82.83789 -43.67715,-29.82224 -87.348509,-59.653 -131.023434,-89.47852 12.897383,43.99065 28.343499,87.44449 38.44336,132.20118 1.289782,27.42161 -12.896205,52.17041 -18.756092,78.26775 -6.509037,21.49734 -13.018074,42.99467 -19.527112,64.49201 43.645371,-29.80636 87.289238,-59.61493 130.935548,-89.41992 49.9541,59.19255 124.67305,98.99863 202.6074,99.62387 20.82131,0.1463 41.54256,-2.55104 61.85744,-6.98129 l 46.49189,-16.27717 C 519.74942,424.99237 566.25262,379.7434 598.07812,326.75391 579.85023,297.33752 558.12807,269.88877 531.80828,247.25643 494.34334,214.45516 441.4662,187.1988 392.16185,179.13142 v 0 C 360.13241,152.81897 305.17067,130.22035 264.125,130.66797 Z"/>
    </g>
    <!-- the fish body path -->
    <path d="m 264.125,130.66797 c -3.54668,0.0217 -6.96066,0.29206 -10.41406,0.65039 4.65853,21.53132 9.31958,43.06209 13.97656,64.59375 -44.54334,17.19279 -84.15889,46.6754 -115.47266,82.83789 -43.67715,-29.82224 -87.348509,-59.653 -131.023434,-89.47852 12.897383,43.99065 28.343499,87.44449 38.44336,132.20118 1.289782,27.42161 -12.896205,52.17041 -18.756092,78.26775 -6.509037,21.49734 -13.018074,42.99467 -19.527112,64.49201 43.645371,-29.80636 87.289238,-59.61493 130.935548,-89.41992 49.9541,59.19255 124.67305,98.99863 202.6074,99.62387 20.82131,0.1463 41.54256,-2.55104 61.85744,-6.98129 -30.66708,-41.04676 -53.78011,-90.95237 -51.11807,-143.22492 1.21672,-27.73743 9.47602,-55.48664 25.44815,-78.35125 -70.65701,-0.30216 -143.11343,25.98807 -192.23277,77.95656 -13.4131,14.50131 -26.35617,29.58531 -42.39658,41.32765 -29.57444,22.85215 -61.936084,41.74145 -92.180238,63.66454 -10.937311,7.46869 -21.873122,14.93959 -32.811504,22.40672 9.01698,-41.27819 27.029828,-80.26877 33.363281,-122.00586 -0.255083,-28.72489 -14.532537,-55.02151 -20.928429,-82.76204 -4.529008,-14.96215 -9.058576,-29.92413 -13.587196,-44.8864 39.578943,27.03491 79.160036,54.06667 118.736326,81.10547 -5.91599,7.97571 -13.72139,15.86337 -18.52734,23.80078 l 6.81749,-1.70208 c 32.61431,-42.064 72.98684,-80.02108 122.86509,-100.41148 64.9064,-27.77732 142.0134,-27.15578 205.33391,4.82433 51.58451,25.07527 95.04973,66.12185 124.52843,115.13102 1.66371,8.9109 -7.31854,14.41176 -10.64648,21.64258 -31.36353,44.36164 -73.89508,81.4864 -123.95899,103.17774 -25.70973,-35.63365 -47.2824,-77.44934 -46.69667,-122.46474 -0.17488,-5.45852 0.84323,-11.13164 1.06386,-16.36534 l -5.14453,1.54297 c -5.7422,50.88559 16.83531,100.28891 46.96875,140.04101 2.29549,5.99282 7.59573,0.38864 11.5954,-0.72443 56.50558,-26.18554 103.00878,-71.43451 134.83428,-124.424 C 579.85023,297.33752 558.12807,269.88877 531.80828,247.25643 494.34334,214.45516 441.4662,187.1988 392.16185,179.13142 v 0 C 360.13241,152.81897 305.17067,130.22035 264.125,130.66797 Z m -1.83789,4.48437 c 44.69806,-0.23882 86.4091,16.68262 121.55413,43.87547 -38.35322,-1.1643 -75.11493,1.71439 -111.38421,15.09914 -4.26644,-19.7088 -8.53122,-39.41797 -12.79687,-59.12695 0.87565,0.0508 1.7513,0.10156 2.62695,0.15234 z m 116.4082,118.7793 c -18.38261,37.06662 -22.62102,80.1585 -13.37109,120.37305 7.1277,32.66407 23.94314,62.39804 42.59375,89.93554 -83.20334,18.13422 -173.2076,-12.35012 -232.58745,-72.36144 -6.59315,-6.39135 -12.87161,-13.09531 -19.07661,-19.86121 34.88757,-26.36162 58.86762,-66.1907 98.92047,-85.8564 37.86614,-21.66084 81.11009,-33.66154 124.685,-35.12212 -0.38803,0.9642 -0.77605,1.92839 -1.16407,2.89258 z"/>
    <!-- the fish eye -->
    <ellipse
        fill="lightsalmon"
        cx="488.41684" cy="310.98386" rx="23.90625" ry="24.757151"/>
  </g>
</svg>
